<?xml version="1.0" standalone="no"?>
<!DOCTYPE svg PUBLIC "-//W3C//DTD SVG 1.1//EN" "http://www.w3.org/Graphics/SVG/1.1/DTD/svg11.dtd">
<svg xmlns="http://www.w3.org/2000/svg" xmlns:xlink="http://www.w3.org/1999/xlink" id="Layer_1" data-name="Layer 1" viewBox="0 0 543.43 495.01" width="543.4299926757812" height="495.010009765625">
  <defs>
    <style>
      .cls-1 {
        fill: url(#linear-gradient-13);
      }

      .cls-2 {
        fill: url(#linear-gradient-2);
      }

      .cls-3 {
        fill: url(#linear-gradient-10);
      }

      .cls-4 {
        fill: url(#linear-gradient-12);
      }

      .cls-5 {
        fill: url(#linear-gradient-4);
      }

      .cls-6 {
        fill: url(#linear-gradient-3);
      }

      .cls-7 {
        fill: url(#linear-gradient-5);
      }

      .cls-8 {
        fill: url(#linear-gradient-8);
      }

      .cls-9 {
        fill: url(#linear-gradient-7);
      }

      .cls-10 {
        fill: url(#linear-gradient-9);
      }

      .cls-11 {
        fill: url(#linear-gradient-11);
      }

      .cls-12 {
        fill: url(#linear-gradient-6);
      }

      .cls-13 {
        fill: url(#linear-gradient);
      }
    </style>
    <linearGradient id="linear-gradient" x1="111.33" y1="21.89" x2="279.68" y2="490.95" gradientUnits="userSpaceOnUse">
      <stop offset="0" stop-color="#d7b467"/>
      <stop offset=".15" stop-color="#e4c77a"/>
      <stop offset=".3" stop-color="#e9cc7e"/>
      <stop offset=".42" stop-color="#cca85b"/>
      <stop offset=".57" stop-color="#a0722c"/>
      <stop offset=".73" stop-color="#e6ca79"/>
      <stop offset=".82" stop-color="#cfab5f"/>
      <stop offset=".97" stop-color="#dbba6e"/>
    </linearGradient>
    <linearGradient id="linear-gradient-2" x1="190.11" y1="-6.39" x2="358.47" y2="462.67" xlink:href="#linear-gradient"/>
    <linearGradient id="linear-gradient-3" x1="281.87" y1="-39.28" x2="450.23" y2="429.77" xlink:href="#linear-gradient"/>
    <linearGradient id="linear-gradient-4" x1="39.68" y1="474.07" x2="53.44" y2="529.13" gradientUnits="userSpaceOnUse">
      <stop offset="0" stop-color="#cfa35b"/>
      <stop offset=".49" stop-color="#d5ac66"/>
      <stop offset="1" stop-color="#c89d56"/>
    </linearGradient>
    <linearGradient id="linear-gradient-5" x1="93.15" y1="460.7" x2="106.91" y2="515.76" xlink:href="#linear-gradient-4"/>
    <linearGradient id="linear-gradient-6" x1="133.06" y1="450.73" x2="146.83" y2="505.78" xlink:href="#linear-gradient-4"/>
    <linearGradient id="linear-gradient-7" x1="180.06" y1="438.98" x2="193.83" y2="494.03" xlink:href="#linear-gradient-4"/>
    <linearGradient id="linear-gradient-8" x1="254.5" y1="420.37" x2="268.27" y2="475.43" xlink:href="#linear-gradient-4"/>
    <linearGradient id="linear-gradient-9" x1="306.84" y1="407.28" x2="320.6" y2="462.34" xlink:href="#linear-gradient-4"/>
    <linearGradient id="linear-gradient-10" x1="348.15" y1="396.95" x2="361.92" y2="452.01" xlink:href="#linear-gradient-4"/>
    <linearGradient id="linear-gradient-11" x1="396.67" y1="384.82" x2="410.44" y2="439.88" xlink:href="#linear-gradient-4"/>
    <linearGradient id="linear-gradient-12" x1="449.73" y1="371.56" x2="463.49" y2="426.62" xlink:href="#linear-gradient-4"/>
    <linearGradient id="linear-gradient-13" x1="488.58" y1="361.85" x2="502.35" y2="416.9" xlink:href="#linear-gradient-4"/>
  </defs>
  <g>
    <path class="cls-13" d="M198.51,325.19v-133.44c-8.16,9.05-22.73,29.25-23.7,58.92-.85,26.32,10.54,54.02,23.7,74.52Z"/>
    <path class="cls-2" d="M461.03,335.97c-1.23-.31-2.5.38-3.05,1.52-3.3,6.81-13.7,25.88-28,29.35-17.47,4.24-33.71,6.88-57.35-21-20.91-24.65-103.62-152.5-122.5-181.78-2.8-4.35-7.04-7.56-11.98-9.1-2.86-.89-6.27-1.74-9.86-2.21,42.29-39.75,115.49-108.57,122.84-115.55,10.39-9.88,25.68-15.41,33.21-15.53.86,0,1.64-.35,2.2-.91.62-.61.98-1.47.91-2.42-.11-1.66-1.58-2.9-3.25-2.9h-66.29c-.86,0-1.64.35-2.21.91-.56.56-.91,1.34-.91,2.2,0,1.73,1.4,3.12,3.12,3.12h2.73c1.66,0,3.26.57,4.55,1.61,5.88,4.76,6.25,13.62.78,18.86l-127.45,122.15V42.66c0-11.19,8.08-20.5,18.72-22.41.61-.1,1.52-.19,2.32-.25.97-.07,1.72-.89,1.72-1.86v-.4c0-1.28-1.03-2.31-2.31-2.31h-77.57c-1.24,0-2.24,1-2.24,2.23,0,.62.25,1.18.66,1.59s.96.65,1.58.65h.53c12.57,0,22.76,10.19,22.76,22.76v171.9c-3.57,11.49-4.47,26.04-4.47,26.04h-1.76c-.83-17.88-7.89-58.35-10.24-66.82-1.34-4.82-1.72-8.96-1.81-11.63-.07-2.32.41-4.61,1.42-6.7,2.58-5.31,7.28-11.94,7.57-21.2.35-11.41-6.36-22.82-6.36-22.82-3.05,7.06-7.41,18.82-6.35,28.94s.35,13.29.35,13.29c-6.94-13.53-7.88-28.7-20.94-46.12-13.06-17.41-41.7-28-41.7-28,.88,30,14.47,48.53,31.23,58.59,16.77,10.06,24.71,18.88,24.71,18.88,14.65,23.83,16.59,73.59,16.59,73.59-8.59-10-7.41-14.7-22.71-30.23-15.29-15.53-45.18-14.71-45.18-14.71,5.65,4.71,14.95,16,25.65,23.3,7.36,5.01,17.14,9.52,22.53,11.86,3.99,1.72,7.61,4.22,10.54,7.42,4.77,5.19,8.78,11.64,11.14,15.79,1.44,2.54,2.32,5.34,2.63,8.24,1.32,12.72,4.22,24.74,7.16,34.47,2.62,8.66,5.28,15.51,6.9,19.42.28.67-.61,1.19-1.06.62-2.31-2.93-4.35-6.3-5.84-9.01v53.85c0,12.57-10.19,22.76-22.76,22.76h-.42c-1.05,0-2.05.67-2.29,1.7-.19.82.07,1.59.6,2.12.4.4.96.65,1.58.65h77.48c1.33,0,2.4-1.07,2.4-2.39v-.02c0-1.15-.88-2.1-2.02-2.2-.87-.07-1.85-.17-2.5-.31-9.97-2-17.58-10.53-18.2-20.93-15.29-16.35-17.93-29.57-17.93-29.57,3.71,6.46,11.69,15.29,17.89,21.71,4.72,4.88,8.41,8.37,8.41,8.37v-5.02c-2.39-2.39-8.41-9.65-8.41-9.65-16.4-22.12-32.54-56.21-31.49-88.42,1.36-42.09,27.27-66.06,31.49-69.69,0,0,3.36-3.16,9.08-8.53,3.02,2.26,7.59,6.46,12.56,13.85,8.74,12.97,67.59,105.62,86.65,136.32,19.06,30.71,28.94,40.76,41.12,50.29h-23.73c-1.68,0-3.18,1.25-3.26,2.93-.09,1.78,1.33,3.26,3.09,3.26h128.91l10.04-39.67c.35-1.39-.48-2.85-1.93-3.21ZM111.5,117.43c6.06,5.95,11.35,12.8,15.26,20.35-4.38-5.87-10.99-14.52-15.26-20.35ZM113.86,198.72c7.6,3.88,14.52,9.2,20.24,15.53-6.45-5.18-13.56-10.64-20.24-15.53Z"/>
    <path class="cls-6" d="M276.45,143.68v1.97c0,.72.59,1.31,1.31,1.31,8.15,0,14.75,6.6,14.75,14.75v53.72l35.64,54.7v-14.87h46.65c11,0,24.47,8.91,24.47,19.91,0,1.4,1.13,2.53,2.53,2.53s2.53-1.13,2.53-2.53v-47.41c0-1.4-1.13-2.53-2.53-2.53s-2.53,1.13-2.53,2.53c0,11-13.59,19.91-24.59,19.91h-46.53v-97.72h46.99c9.98,0,19.9,2.02,28.93,6.28,11.02,5.2,21.12,13.67,23.79,27.42h4.76l-4.76-41.29h-150.1c-.72,0-1.31.59-1.31,1.31Z"/>
  </g>
  <g>
    <path class="cls-5" d="M45.16,474.82l-18.29-17.87h-1.24v17.32c0,1.79,1.24,3.24,2.97,3.73v.9c-.48,0-4.83-.14-6-.14-1.04,0-5.11.14-5.66.14v-.9c1.66-.41,2.97-1.93,2.97-3.73v-35.19c0-1.73-1.24-3.24-2.97-3.73v-.9c.48,0,4.62.14,5.66.14,1.17,0,5.45-.14,6-.14v.9c-1.66.41-2.97,1.93-2.97,3.73v14.77h1.1l13.59-12.21c2.42-2.14,2.9-3.66,2.9-5.11,0-.48-.62-1.1-1.1-1.17v-.9c1.04,0,4.69.14,5.8.14,1.04,0,4.69-.14,5.8-.14v.9c-2.97.76-5.24,2.76-7.38,4.69l-14.83,13.52,18.84,18.35c1.86,1.79,5.04,5.17,6.97,6.07v.76c-5.52.9-8.21-.07-12.14-3.93Z"/>
    <path class="cls-7" d="M99.74,441.84l-10.35,16.21v16.15c0,1.79,1.17,3.31,3.31,3.79v.9c-.9,0-5.18-.14-6.35-.14-1.04,0-5.11.14-6.14.14v-.9c2.14-.41,3.38-2,3.38-3.79v-15.87l-11.39-17.8c-1.52-2.35-3.59-4.35-5.31-5.17v-.9c1.04,0,4.9.14,6,.14,1.04,0,4.9-.14,6-.14v.9c-.76.14-1.38,1.04-1.38,1.66,0,.55.07,1.59.76,2.69l9.59,15.18,9.59-14.97c.9-1.45,1.1-2.35,1.1-3.17,0-.69-.76-1.24-1.72-1.38v-.9c.9,0,3.93.14,4.83.14s3.93-.14,4.83-.14v.9c-2.62,1.24-4.76,3.31-6.76,6.49Z"/>
    <path class="cls-12" d="M146.32,474.82l-12.01-15.59c-1.93,0-3.79-.14-5.24-.34v15.32c0,1.79,1.31,3.31,3.38,3.79v.9c-.83,0-5.17-.14-6.35-.14-1.04,0-5.11.14-6,.14v-.9c2-.41,3.24-2,3.24-3.79v-35.12c0-1.73-1.17-3.24-3.31-3.73v-.9c.83,0,5.11.14,6.28.14,2,0,7.66-.41,9.94-.41,7.87,0,15.46,3.66,15.46,12.9,0,5.66-4.14,10.07-10.56,11.59l10.83,14.08c1.59,2.07,3.73,4.21,5.59,5.24v.76c-5.52.9-7.87.48-11.25-3.93ZM134.45,436.46c-1.52,0-3.93.14-5.38.55v19.32c1.17.21,3.66.41,5.8.41,7.94,0,10.76-5.11,10.76-9.73,0-6.49-4.28-10.56-11.18-10.56Z"/>
    <path class="cls-9" d="M204.83,478.75c-1.03,0-4.97.14-6,.14v-.9c1.86-.62,2.28-1.66,2.07-2.9-.07-.55-.62-2.14-.83-2.62l-2.62-6.69h-17.6l-2.35,5.73c-.28.62-.97,3.04-1.04,3.38-.28,1.45.55,2.48,2.48,3.11v.9c-.83,0-3.73-.14-4.62-.14s-4.35.14-5.45.14v-.9c2.55-.9,3.31-2.21,4.28-4.62l13.87-34.29c.62-1.52,1.59-5.04,1.59-5.04h3.59s.9,3.52,1.45,5.04l12.83,34.29c.97,2.55,1.93,3.93,4.48,4.62v.9c-1.03,0-5.11-.14-6.14-.14ZM188.96,443.15l-7.93,19.67h15.39l-7.45-19.67Z"/>
    <path class="cls-8" d="M278.31,479.1c-3.52-.34-5.87-.34-10.28-.34h-13.11c-1.17,0-5.38.14-6.28.14v-.9c2.14-.41,3.31-2.14,3.31-3.93v-34.98c0-1.73-1.24-3.24-3.31-3.73v-.9h26.15c.76,0,1.93-.14,2.69-.55h.9l-.14,7.94h-.9c-.9-2.76-2.97-4.42-6.56-4.42h-13.11v16.77h11.66c1.93,0,3.04-.62,3.93-2.28h.9c-.07.69-.07,2.83-.07,3.66,0,.76.07,2.97.07,3.73h-.9c-.9-1.59-2-2.28-3.93-2.28h-11.66v18.77h12.97c4.42,0,6.55-1.38,7.8-4.14l.9.21-1.04,7.25Z"/>
    <path class="cls-10" d="M330.79,438.94l-16.21,40.64h-2.9l-15.32-40.92c-.9-2.35-1.73-2.76-3.52-3.31v-.9c1.04,0,5.04.14,6.14.14,1.04,0,5.04-.14,6.14-.14v.9c-1.17.28-2.83,1.17-2.83,2.35,0,.62.41,1.66.69,2.42l11.73,31.19,12.08-30.43c.55-1.38.41-2.83.34-3.31-.28-1.38-.76-1.86-2.28-2.21v-.9c.97,0,3.86.14,4.9.14.97,0,3.86-.14,4.9-.14v.9c-2,.48-2.97,1.38-3.86,3.59Z"/>
    <path class="cls-3" d="M377.81,479.1c-3.52-.34-5.87-.34-10.28-.34h-13.11c-1.17,0-5.38.14-6.28.14v-.9c2.14-.41,3.31-2.14,3.31-3.93v-34.98c0-1.73-1.24-3.24-3.31-3.73v-.9h26.15c.76,0,1.93-.14,2.69-.55h.9l-.14,7.94h-.9c-.9-2.76-2.97-4.42-6.56-4.42h-13.11v16.77h11.66c1.93,0,3.04-.62,3.93-2.28h.9c-.07.69-.07,2.83-.07,3.66,0,.76.07,2.97.07,3.73h-.9c-.9-1.59-2-2.28-3.93-2.28h-11.66v18.77h12.97c4.42,0,6.55-1.38,7.8-4.14l.9.21-1.04,7.25Z"/>
    <path class="cls-11" d="M432.78,439.08v40.5h-1.24s-3.73-2.97-5.45-5.04l-26.63-31.74v31.46c0,2.21,1.31,3.24,3.59,3.73v.9c-.48,0-3.93-.14-5.11-.14-1.04,0-4.55.14-5.11.14v-.9c2.21-.62,3.66-1.45,3.66-3.73v-34.15c0-2.48-.9-4.21-2.69-4.76v-.9c1.04,0,2.07.14,3.17.14,1.04,0,1.86-.14,2.97-.14l29.88,35.6v-30.98c0-2.21-1.31-3.24-3.59-3.73v-.9c.48,0,3.93.14,5.11.14,1.04,0,4.55-.14,5.11-.14v.9c-2.21.62-3.66,1.45-3.66,3.73Z"/>
    <path class="cls-4" d="M485.37,442.94h-.9c-.97-3.93-2.62-5.11-5.59-5.11h-9.59v36.57c0,1.79,2,3.31,4.07,3.79v.9c-.83,0-5.87-.14-7.04-.14-1.04,0-5.8.14-6.69.14v-.9c2-.41,3.93-2,3.93-3.79v-36.57h-9.59c-2.9,0-4.55,1.1-5.59,5.11h-.9l-.14-8.56c2.35.14,5.11.41,19.11.41s16.7-.28,19.04-.41l-.14,8.56Z"/>
    <path class="cls-1" d="M511.58,479.58c-4.07,0-7.87-.9-12.01-2.07l-.28-7.66h.9c.48,1.93,1.79,4,3.24,4.97,2.07,1.38,5.38,2,7.8,2,5.31,0,9.59-2,9.59-7.59,0-2.48-.62-4.83-2.76-6.28-3.59-2.48-8.62-4.21-13.11-6.49-3.73-1.86-6.69-4.62-6.69-10.28,0-8.62,7.11-12.42,15.59-12.42,3.45,0,7.38.97,10.83.83l.34,8.21h-.9c-.55-1.72-1.93-3.38-3.38-4.35-2.07-1.31-4.97-1.93-7.45-1.93-5.31,0-9.31,2.76-9.31,7.38,0,3.73,1.79,5.93,4.28,7.38,4,2.35,9.38,4.21,13.39,6.69,2.9,1.79,4.83,4.35,4.83,8.63,0,8.21-6.14,12.97-14.9,12.97Z"/>
  </g>
</svg>